<?xml version="1.0" ?><!DOCTYPE svg  PUBLIC '-//W3C//DTD SVG 1.1//EN'  'http://www.w3.org/Graphics/SVG/1.1/DTD/svg11.dtd'><svg height="8.4666mm" style="shape-rendering:geometricPrecision; text-rendering:geometricPrecision; image-rendering:optimizeQuality; fill-rule:evenodd; clip-rule:evenodd" version="1.1" viewBox="0 0 846.66 846.66" width="8.4666mm" xml:space="preserve" xmlns="http://www.w3.org/2000/svg" xmlns:xlink="http://www.w3.org/1999/xlink"><defs><style type="text/css">
   <![CDATA[
    .fil0 {fill:#2ecc71;fill-rule:nonzero}
   ]]>
  </style></defs><g id="Layer_x0020_1"><path class="fil0" d="M387.69 559.35c0,-93.4 -75.72,-169.12 -169.13,-169.12 -91.94,0 -169.12,74.31 -169.12,169.12 0,85.55 64.01,157.75 148.8,167.91l0 -162.46 -37.04 37.92c-18.58,19.11 -47.63,-9.14 -29.05,-28.25l70.87 -72.57c8.11,-9.61 23.08,-9.57 31.14,0.07l70.82 72.5c18.58,19.11 -10.47,47.36 -29.05,28.25l-37.05 -37.92 0 162.46c84.8,-10.15 148.81,-82.37 148.81,-167.91zm409.53 -171.89l-398.59 0c-26.73,0 -26.73,-40.64 0,-40.64l398.59 0 0 -88.97 -238.83 0c-6.91,0 -13.33,-3.48 -17.16,-9.43 -31.9,-43.41 -63.8,-86.83 -95.7,-130.24l-263.93 0 0 234.66c12,-2.14 24.35,-3.25 36.96,-3.25 115.85,0 209.77,93.92 209.77,209.76 0,25.23 -4.46,49.41 -12.62,71.81l381.51 0 0 -243.7zm-648.82 83.79c-26.73,0 -26.73,-40.64 0,-40.64l140.33 0c26.73,0 26.73,40.64 0,40.64l-140.33 0zm-7.44 -106.83l0 -266.56c0,-11.22 9.1,-20.32 20.32,-20.32l294.47 0c6.48,0.01 12.53,3.12 16.35,8.34l28.86 39.26 264.74 0c11.22,0 20.32,9.1 20.32,20.32l0 71.75 31.52 0c11.22,0 20.32,9.1 20.32,20.32l0 413.95c0,11.22 -9.1,20.32 -20.32,20.32l-421.88 0c-38.51,60.54 -105.01,97.31 -177.1,97.31 -115.84,0 -209.76,-93.92 -209.76,-209.76 0,-86.11 52.55,-163.21 132.16,-194.93zm389.86 -198.64l37.8 51.43 176.76 0 0 -51.43 -214.56 0z"/></g></svg>